:SAMPLES-PER-SECOND 30
:FULLY-SPECIFIED
:DEGREES
19
root  34.901245 36.5568146 -14.62649098 9.503054619 -4.052290916 3.09668541
lowerback  -8.836974144 -0.1739192605 -0.2586078346
upperback  -3.745229959 0.2692340016 -3.217720032
thorax  1.088840008 0.2821703553 -3.151530027
lowerneck  -14.87419987 -4.730020046 -3.580849886
upperneck  15.31219959 -6.676469803 6.711840153
head  7.5144701 -2.679229975 2.067039967
lclavicle  0 -4.497500157e-015 -2.743230041e-014
lhumerus  -47.91120148 31.0802002 63.05960083
lradius  0.00954947155 -6.507048965e-006 29.54190254
lwrist  3.192251654e-007 -3.790274832e-007 -28.5685997
lhand  -3.506825818e-031 -36.92409897 -10.78789997
lfingers  90 7.125020027 -90
lthumb  94.8514328 -25.6207428 101.1051636
rclavicle  0 -4.497500157e-015 -2.743230041e-014
rhumerus  -51.83839798 -38.15159988 -50.06660461
rradius  -5.16745672e-007 2.214343908e-008 44.06140137
rwrist  0.0006954420824 -0.004670973402 -149.9550018
rhand  -3.011834106e-031 -2.355969906 -7.768260002
rfingers  -90 -7.125020027 -90
rthumb  -86.56182098 -7.915615559 -66.43015289
rfemur  -12.42332554 15.8065033 12.92117596
rtibia  -0.5406013131 -0.6368794441 19.80855942
rfoot  0.4315571487 -21.30908966 -36.7088623
rtoes  4.095572472 19.6071682 -102.0531616
lfemur  -8.397069931 -15.91990376 -19.77137947
ltibia  2.636162758 0.08966786414 13.96185589
lfoot  0.3995022476 -25.04778862 35.89170074
ltoes  -8.685248375 -18.08569527 -116.2004547
20
root  34.90104976 36.55705189 -14.62514832 9.504613876 -4.058237553 3.108730555
lowerback  -8.847769737 -0.1711194813 -0.2741813958
upperback  -3.729170084 0.2656390071 -3.219769955
thorax  1.111220002 0.2831403315 -3.145400047
lowerneck  -14.81919956 -4.768370152 -3.544120073
upperneck  15.16800022 -6.720739841 6.627419949
head  7.455520153 -2.713289976 2.028909922
lclavicle  0 -4.497500157e-015 -2.743230041e-014
lhumerus  -47.90240097 31.10110092 63.0379982
lradius  0.00954947155 -6.507048965e-006 29.54319954
lwrist  3.192251654e-007 -3.790274832e-007 -28.54649925
lhand  -3.509023437e-031 -36.96559906 -10.75549984
lfingers  90 7.125020027 -90
lthumb  94.86407471 -25.58751869 101.1466599
rclavicle  0 -4.497500157e-015 -2.743230041e-014
rhumerus  -51.45679855 -37.37330246 -50.7838974
rradius  -5.16745672e-007 2.214343908e-008 44.99760056
rwrist  0.0006954420824 -0.004670973402 -151.0099945
rhand  -3.020947919e-031 -2.505899906 -7.631400108
rfingers  -90 -7.125020027 -90
rthumb  -86.53413391 -8.033126831 -66.56845856
rfemur  -12.40331745 15.73599148 12.90147686
rtibia  -0.5375609994 -0.6848422289 19.77946663
rfoot  0.4355615377 -21.38910294 -36.67538452
rtoes  4.069046974 19.60776138 -101.9740677
lfemur  -8.375020027 -15.89402103 -19.8028965
ltibia  2.664812565 0.107962817 13.93384933
lfoot  0.4180119336 -25.08741951 35.89788818
ltoes  -8.680600166 -18.08786964 -116.1854782
21
root  34.90077642 36.55726515 -14.62265826 9.506899834 -4.051530361 3.119570732
lowerback  -8.830989838 -0.1676410586 -0.2732745111
upperback  -3.728600025 0.2585740089 -3.220930099
thorax  1.102210045 0.2837579548 -3.150680065
lowerneck  -14.84430027 -4.835509777 -3.725349903
upperneck  15.18540001 -6.799029827 6.774710178
head  7.481810093 -2.745929956 2.097170115
lclavicle  0 -4.497500157e-015 -2.743230041e-014
lhumerus  -47.92959976 31.14249992 62.9822998
lradius  0.00954947155 -6.507048965e-006 29.51749802
lwrist  3.192251654e-007 -3.790274832e-007 -28.58589935
lhand  -3.510584031e-031 -36.96220016 -10.73719978
lfingers  90 7.125020027 -90
lthumb  94.85853577 -25.56964684 101.141304
rclavicle  0 -4.497500157e-015 -2.743230041e-014
rhumerus  -51.19829559 -36.64459991 -51.39040375
rradius  -5.16745672e-007 2.214343908e-008 45.92449951
rwrist  0.0006954420824 -0.004670973402 -152.3710022
rhand  -3.028642325e-031 -2.642750025 -7.515810013
rfingers  -90 -7.125020027 -90
rthumb  -86.51304626 -8.132058144 -66.69525146
rfemur  -12.42188072 15.73203564 12.89677143
rtibia  -0.5504063964 -0.684111774 19.80958557
rfoot  0.420540005 -21.39224625 -36.67100143
rtoes  4.054803848 19.60831451 -101.9316101
lfemur  -8.310240746 -15.8416748 -19.84708977
ltibia  2.736109018 0.1441480815 13.82179928
lfoot  0.4310907423 -25.10799408 35.90272522
ltoes  -8.688411713 -18.08836937 -116.21064
22
root  34.90007355 36.55744838 -14.61869337 9.508906364 -4.044929028 3.106664419
lowerback  -8.817006111 -0.1651106328 -0.2935772538
upperback  -3.732124329 0.2582332492 -3.221410036
thorax  1.088340044 0.2838095427 -3.13812995
lowerneck  -14.84679985 -4.882229805 -3.829900026
upperneck  15.16349983 -6.849070072 6.824019909
head  7.483409882 -2.772399902 2.124380112
lclavicle  0 -4.497500157e-015 -2.743230041e-014
lhumerus  -47.97399902 31.20940018 62.9333992
lradius  0.00954947155 -6.507048965e-006 29.51189995
lwrist  3.192251654e-007 -3.790274832e-007 -28.6692009
lhand  -3.516089748e-031 -36.93280029 -10.67510033
lfingers  90 7.125020027 -90
lthumb  94.83143616 -25.50973892 101.1040878
rclavicle  0 -4.497500157e-015 -2.743230041e-014
rhumerus  -50.94529724 -35.87659454 -51.98590469
rradius  -5.16745672e-007 2.214343908e-008 46.96849823
rwrist  0.0006954420824 -0.004670973402 -153.8309937
rhand  -3.033332827e-031 -2.816720009 -7.444779873
rfingers  -90 -7.125020027 -90
rthumb  -86.51689911 -8.188429832 -66.86070251
rfemur  -12.39981747 15.73105526 12.92226315
rtibia  -0.5465208888 -0.6582896113 19.79342842
rfoot  0.4406312704 -21.34632874 -36.6466217
rtoes  4.053312302 19.60882568 -101.9271622
lfemur  -8.307336807 -15.85310555 -19.82896996
ltibia  2.723158121 0.1315865219 13.839818
lfoot  0.4178336263 -25.08428574 35.8798027
ltoes  -8.683989525 -18.08628464 -116.1963959
